<?xml version="1.0" encoding="UTF-8"?>
<svg id="Ebene_2" data-name="Ebene 2" xmlns="http://www.w3.org/2000/svg" viewBox="0 0 21.53 22">
  <defs>
    <style>
      .cls-1 {
        fill: #4c79b3;
      }

      .cls-2 {
        fill: #338f53;
      }

      .cls-3 {
        fill: #e1a304;
      }

      .cls-4 {
        fill: #d24335;
      }
    </style>
  </defs>
  <g id="Ebene_1-2" data-name="Ebene 1">
    <g>
      <path class="cls-1" d="M21.53,11.25c0-.72-.06-1.41-.17-2.08h-10.36v4.13h5.93c-.27,1.36-1.04,2.5-2.2,3.28v2.75h3.54c2.07-1.92,3.26-4.74,3.26-8.08Z"/>
      <path class="cls-2" d="M11,22c2.97,0,5.45-.99,7.27-2.67l-3.54-2.75c-.99.66-2.25,1.06-3.73,1.06-2.87,0-5.3-1.93-6.17-4.55H1.18v2.83c1.81,3.59,5.52,6.07,9.82,6.07Z"/>
      <path class="cls-3" d="M4.83,13.1c-.23-.66-.35-1.37-.35-2.1s.13-1.44.35-2.1v-2.83H1.18c-.75,1.48-1.18,3.15-1.18,4.93s.43,3.45,1.18,4.93l3.65-2.83Z"/>
      <path class="cls-4" d="M11,4.35c1.62,0,3.07.56,4.22,1.65l3.13-3.13c-1.9-1.78-4.38-2.87-7.35-2.87C6.7,0,2.99,2.47,1.18,6.07l3.65,2.83c.87-2.61,3.3-4.55,6.17-4.55Z"/>
    </g>
  </g>
</svg>