<?xml version="1.0" encoding="UTF-8"?>
<svg id="Ebene_2" data-name="Ebene 2" xmlns="http://www.w3.org/2000/svg" viewBox="0 0 25.66 26.01">
  <g id="Ebene_1-2" data-name="Ebene 1">
    <path id="Open_AI" data-name="Open AI" d="M23.97,10.64c.59-1.77.38-3.71-.56-5.32-1.42-2.47-4.27-3.74-7.06-3.14-2.43-2.7-6.58-2.92-9.28-.49-.86.77-1.5,1.75-1.85,2.85-1.83.37-3.41,1.52-4.33,3.14-1.43,2.46-1.11,5.58.81,7.69-.59,1.77-.39,3.71.55,5.32,1.42,2.47,4.28,3.74,7.06,3.14,1.24,1.39,3.02,2.19,4.89,2.18,2.85,0,5.38-1.84,6.26-4.56,1.83-.38,3.41-1.52,4.33-3.14,1.42-2.46,1.09-5.55-.81-7.67h0ZM14.19,24.31c-1.14,0-2.24-.4-3.12-1.13l.15-.09,5.18-2.99c.26-.15.42-.44.43-.74v-7.3l2.19,1.27s.04.03.04.06v6.05c0,2.69-2.18,4.86-4.87,4.87h0ZM3.72,19.83c-.57-.99-.78-2.14-.58-3.27l.15.09,5.18,2.99c.26.15.59.15.85,0l6.33-3.65v2.53s-.01.05-.04.07l-5.24,3.02c-2.33,1.34-5.31.54-6.66-1.78h0s0,0,0,0ZM2.36,8.56c.58-.99,1.48-1.75,2.56-2.14v6.15c0,.3.16.59.42.73l6.3,3.63-2.19,1.27s-.05.01-.08,0l-5.23-3.02c-2.32-1.35-3.12-4.32-1.78-6.66v.03h0ZM20.34,12.73l-6.32-3.67,2.18-1.26s.05-.01.08,0l5.23,3.02c2.33,1.35,3.13,4.32,1.78,6.65-.57.98-1.46,1.73-2.52,2.13v-6.15c0-.3-.18-.58-.44-.72h0ZM22.53,9.46l-.15-.09-5.17-3.01c-.26-.15-.59-.15-.85,0l-6.33,3.65v-2.53s0-.05.03-.07l5.23-3.02c2.33-1.34,5.32-.54,6.66,1.79.57.99.77,2.14.58,3.26v.02ZM8.83,13.94l-2.19-1.26s-.04-.04-.04-.06v-6.03c0-2.69,2.19-4.87,4.88-4.87,1.14,0,2.24.4,3.11,1.13l-.15.09-5.18,2.99c-.26.15-.42.44-.43.74v7.29ZM10.02,11.38l2.82-1.63,2.83,1.63v3.25l-2.82,1.63-2.83-1.63v-3.25s0,0,0,0Z"/>
  </g>
</svg>