<?xml version="1.0" encoding="UTF-8"?>
<svg id="Ebene_2" data-name="Ebene 2" xmlns="http://www.w3.org/2000/svg" viewBox="0 0 23.59 23.66">
  <defs>
    <style>
      .cls-1 {
        fill: #e60000;
      }

      .cls-2 {
        fill: #fff;
      }
    </style>
  </defs>
  <g id="Ebene_1-2" data-name="Ebene 1">
    <g id="surface1">
      <path class="cls-1" d="M7.45.83c2.97-1.18,6.42-1.1,9.31.27-.82-.12-1.66-.03-2.47.11-2.21.42-4.31,1.46-5.96,3-1.58,1.55-2.68,3.6-2.99,5.8-.21,1.56-.02,3.19.68,4.61.72,1.49,1.99,2.71,3.52,3.34,1.47.62,3.18.62,4.67.06,2.24-.82,3.85-3.04,4.03-5.41.12-1.55-.26-3.2-1.31-4.4-1-1.17-2.45-1.81-3.91-2.17-.08-1.44.6-2.86,1.67-3.79.6-.54,1.34-.88,2.1-1.1l.06-.02c2.19,1.05,4.05,2.78,5.24,4.91,1.02,1.81,1.55,3.9,1.49,5.98-.01,2.69-1.01,5.35-2.74,7.41-1.63,1.96-3.91,3.37-6.39,3.93-2.49.57-5.17.33-7.5-.73-2.28-1.02-4.21-2.79-5.44-4.97C.5,15.85-.04,13.76,0,11.68c0-2.59.93-5.17,2.53-7.19,1.28-1.62,2.99-2.91,4.91-3.66Z"/>
      <path class="cls-2" d="M14.28,1.21c.81-.14,1.65-.23,2.47-.11l.12.02-.08.03c-.77.22-1.51.56-2.1,1.1-1.07.93-1.75,2.35-1.67,3.79,1.46.37,2.91,1.01,3.91,2.17,1.04,1.19,1.42,2.84,1.31,4.4-.18,2.37-1.79,4.59-4.03,5.41-1.49.56-3.2.56-4.67-.06-1.53-.63-2.8-1.85-3.52-3.34-.7-1.42-.89-3.05-.68-4.61.31-2.2,1.42-4.25,2.99-5.8,1.64-1.55,3.74-2.59,5.96-3Z"/>
    </g>
  </g>
</svg>