<?xml version="1.0" encoding="UTF-8"?>
<svg id="Ebene_2" data-name="Ebene 2" xmlns="http://www.w3.org/2000/svg" viewBox="0 0 106.68 104.29">
  <defs>
    <style>
      .cls-1 {
        fill: #d2d2d2;
      }

      .cls-2 {
        font-size: 18.72px;
      }

      .cls-2, .cls-3 {
        font-family: Rubik-Bold, Rubik;
        font-weight: 700;
      }

      .cls-4, .cls-3 {
        fill: #fff;
      }

      .cls-3 {
        font-size: 18.72px;
      }

      .cls-5 {
        fill: #3c6e9d;
      }
    </style>
  </defs>
  <g id="Ebene_1-2" data-name="Ebene 1">
    <g>
      <g>
        <path class="cls-5" d="M99.25,16.76l-37.71-1.08-.37,12.82c-.12,4.23-3.64,7.55-7.87,7.43l-12.25-.35-1.7,59.41c-.12,4.23,3.21,7.75,7.43,7.87l49.96,1.43c4.23.12,7.75-3.21,7.87-7.43l2.07-72.23c.12-4.23-3.21-7.75-7.43-7.87Z"/>
        <path class="cls-1" d="M61.54,15.68l-.37,12.82c-.12,4.23-3.64,7.55-7.87,7.43l-12.25-.35,20.49-19.9Z"/>
      </g>
      <text class="cls-3" transform="translate(79.62 37.57) rotate(1.45)"><tspan x="0" y="0">IN</tspan></text>
      <g>
        <path class="cls-4" d="M53.33.15L15.81,7.49l2.5,12.75c.82,4.2-1.92,8.28-6.12,9.1L0,31.74l11.58,59.11c.82,4.2,4.9,6.94,9.1,6.12l49.71-9.74c4.2-.82,6.94-4.9,6.12-9.1L62.43,6.27c-.82-4.2-4.9-6.94-9.1-6.12Z"/>
        <path class="cls-1" d="M15.81,7.49l2.5,12.75c.82,4.2-1.92,8.28-6.12,9.1L0,31.74,15.81,7.49Z"/>
      </g>
      <text class="cls-2" transform="translate(39.38 26.44) rotate(-11.32)"><tspan x="0" y="0">IN</tspan></text>
    </g>
  </g>
</svg>