<?xml version="1.0" encoding="UTF-8"?>
<svg id="Ebene_2" data-name="Ebene 2" xmlns="http://www.w3.org/2000/svg" viewBox="0 0 51.93 51.93">
  <defs>
    <style>
      .cls-1 {
        fill: #45a4dc;
      }

      .cls-2 {
        fill: #fff;
      }
    </style>
  </defs>
  <g id="Ebene_1-2" data-name="Ebene 1">
    <g>
      <circle class="cls-1" cx="25.96" cy="25.96" r="25.96"/>
      <g>
        <path class="cls-2" d="M10.05,24.91c.14-.43.15-.88.24-1.32.38-1.82,1.14-3.46,2.28-4.93.13-.17.2-.16.36-.05,1.13.83,2.27,1.66,3.42,2.48.2.14.19.21.05.39-2.14,2.63-2.19,6.24-.09,8.88,1.38,1.73,3.2,2.66,5.42,2.7,1.93.04,3.85,0,5.78.01.19,0,.24-.03.2-.23-.14-.75-.37-1.48-.54-2.23-.07-.28-.11-.57-.09-.86.04-.65.43-.92,1.05-.74.4.12.73.35,1.05.58,2.3,1.67,4.61,3.34,6.91,5.01.33.24.65.47,1,.72-1.03.75-2.04,1.48-3.05,2.21-1.64,1.19-3.28,2.38-4.93,3.57-.31.22-.63.44-1,.54-.61.17-.99-.1-1.03-.74-.03-.39.06-.76.16-1.13.14-.57.27-1.15.43-1.71.07-.23,0-.28-.22-.27-1.96,0-3.92.06-5.87-.01-4.08-.14-7.27-1.95-9.57-5.3-1.09-1.59-1.69-3.37-1.9-5.28,0-.06.02-.13-.06-.16v-2.11Z"/>
        <path class="cls-2" d="M24.53,10.24c.58.38.51.94.4,1.49-.14.69-.34,1.36-.51,2.04-.09.35-.08.35.29.35,1.9,0,3.79-.03,5.68.02,3.56.11,6.5,1.57,8.77,4.29,3.47,4.16,3.61,10.16.4,14.53-.07.09-.14.18-.21.27-.08.11-.13.15-.27.05-1.2-.88-2.41-1.75-3.61-2.63-.02-.02-.04-.05-.07-.08.8-.94,1.33-2.01,1.59-3.22.84-3.92-1.94-7.89-5.92-8.44-.43-.06-.87-.08-1.3-.08-1.72,0-3.44,0-5.16,0-.26,0-.32.07-.26.31.19.76.37,1.52.55,2.29.07.27.08.55.05.83-.06.57-.42.82-.98.68-.4-.1-.73-.33-1.06-.57-2.08-1.51-4.17-3.02-6.25-4.54-.56-.41-1.12-.81-1.7-1.24.41-.3.81-.58,1.2-.87,2.19-1.59,4.39-3.18,6.58-4.77.4-.29.82-.55,1.28-.74h.5Z"/>
      </g>
    </g>
  </g>
</svg>