<?xml version="1.0" encoding="UTF-8"?>
<svg id="Ebene_2" data-name="Ebene 2" xmlns="http://www.w3.org/2000/svg" viewBox="0 0 21.24 24.32">
  <defs>
    <style>
      .cls-1 {
        fill: #ed1c24;
      }
    </style>
  </defs>
  <g id="Ebene_1-2" data-name="Ebene 1">
    <g>
      <path id="path3" d="M19.79,1.23h.15c.18,0,.33-.06.33-.22,0-.12-.09-.23-.32-.23-.07,0-.12,0-.16,0v.45h0ZM19.79,2h-.25V.63c.11-.02.23-.04.41-.04.22,0,.36.04.45.11.08.06.12.15.12.29,0,.18-.12.29-.26.33h0c.12.03.2.14.22.35.03.21.06.3.08.34h-.25s-.06-.17-.09-.35c-.03-.17-.12-.23-.29-.23h-.14v.58h0ZM20.01.26c-.54,0-.98.46-.98,1.03s.44,1.03.99,1.03c.54,0,.98-.46.98-1.03s-.43-1.03-.98-1.03h0ZM20.02.05c.68,0,1.23.55,1.23,1.23s-.54,1.24-1.23,1.24-1.24-.55-1.24-1.24S19.33.05,20.01.05h0Z"/>
      <g id="g4156">
        <path id="path5" d="M2.37,22.1l-.21-1.22c-.06-.35-.13-.9-.19-1.29h-.02c-.06.38-.14.95-.21,1.29l-.22,1.22h.85ZM1.41,22.9l-.27,1.36H.15l1.24-5.65h1.22l1.12,5.65h-1l-.26-1.36h-1.06Z"/>
        <path id="path7" d="M5.98,21.73c0-.08,0-.16-.01-.24-.04-.28-.19-.53-.43-.53-.41,0-.56.59-.56,1.28,0,.79.21,1.24.55,1.24.15,0,.33-.08.42-.41.02-.07.04-.16.04-.26v-1.08ZM7,18.46v4.63c0,.37.02.82.03,1.17h-.88l-.06-.47h-.02c-.15.29-.47.54-.85.54-.84,0-1.26-.93-1.26-2.1,0-1.43.62-2.12,1.3-2.12.35,0,.58.17.7.43h.02v-2.06h1.02Z"/>
        <path id="path9" d="M9.12,23.54c.39,0,.48-.73.48-1.34s-.1-1.33-.5-1.33c-.43,0-.52.75-.52,1.33,0,.7.11,1.34.53,1.34h0ZM9.1,24.32c-.94,0-1.53-.75-1.53-2.1,0-1.47.76-2.13,1.55-2.13.93,0,1.51.79,1.51,2.1,0,1.69-.91,2.13-1.52,2.13h0Z"/>
        <path id="path11" d="M12.21,22.79c0,.1.02.2.04.26.1.34.28.43.41.43.39,0,.55-.5.55-1.3,0-.73-.17-1.23-.56-1.23-.19,0-.36.21-.41.43-.02.07-.04.18-.04.26v1.14ZM11.2,18.46h1.02v2.13h.02c.2-.31.47-.49.86-.49.77,0,1.15.87,1.15,2.01,0,1.44-.57,2.21-1.32,2.21-.35,0-.59-.16-.8-.56h-.02l-.06.49h-.87c.01-.34.03-.8.03-1.17v-4.63h0Z"/>
        <path id="path13" d="M16.68,21.82c0-.57-.16-.98-.49-.98-.37,0-.53.54-.54.98h1.02ZM15.65,22.54c.01.74.4.98.88.98.31,0,.57-.07.76-.14l.14.73c-.27.12-.69.19-1.09.19-1.09,0-1.69-.75-1.69-2.02,0-1.37.69-2.19,1.6-2.19s1.36.73,1.36,1.91c0,.27-.01.42-.03.54h-1.93s0,0,0,0Z"/>
      </g>
      <g id="g4151">
        <polygon id="polygon15" class="cls-1" points="11.1 0 17.61 0 17.61 15.59 11.1 0"/>
        <polygon id="polygon17" class="cls-1" points="6.51 0 0 0 0 15.59 6.51 0"/>
        <polygon id="polygon19" class="cls-1" points="5.96 12.45 8.81 5.74 12.96 15.59 10.24 15.59 9 12.45 5.96 12.45"/>
      </g>
    </g>
  </g>
</svg>