<?xml version="1.0" encoding="UTF-8"?>
<svg id="Ebene_2" data-name="Ebene 2" xmlns="http://www.w3.org/2000/svg" viewBox="0 0 24.27 24.27">
  <defs>
    <style>
      .cls-1 { fill: #ff8000; }
      .cls-2 { fill-rule: evenodd; }
    </style>
  </defs>
  <g id="Ebene_1-2" data-name="Ebene 1">
    <g>
      <path class="cls-1" d="M21.29,19.98c-10.32,4.77-16.73.78-20.83-1.64-.25-.15-.69.04-.31.45,1.37,1.61,5.84,5.48,11.69,5.48s9.33-3.1,9.76-3.64c.43-.54.13-.83-.31-.65h0ZM24.19,18.42c-.28-.35-1.69-.42-2.57-.31-.89.1-2.22.63-2.1.95.06.12.18.07.79.01.61-.06,2.32-.27,2.68.18.36.46-.55,2.63-.71,2.98-.16.35.06.44.36.21.3-.23.83-.84,1.19-1.69.36-.86.57-2.06.36-2.32h0Z"/>
      <path class="cls-2" d="M14.35,10.25c0,1.25.03,2.29-.62,3.4-.53.9-1.36,1.46-2.29,1.46-1.27,0-2.01-.94-2.01-2.33,0-2.74,2.53-3.23,4.92-3.23v.7ZM17.68,18.08c-.22.19-.54.2-.78.08-1.1-.89-1.29-1.3-1.9-2.14-1.81,1.8-3.1,2.33-5.45,2.33-2.78,0-4.95-1.67-4.95-5,0-2.61,1.46-4.38,3.53-5.25,1.8-.77,4.3-.9,6.22-1.12v-.42c0-.76.06-1.67-.4-2.33-.4-.59-1.18-.84-1.86-.84-1.26,0-2.39.63-2.66,1.93-.06.29-.27.57-.57.59l-3.21-.33c-.27-.06-.57-.27-.49-.67C5.89,1.14,9.4,0,12.55,0c1.61,0,3.71.42,4.98,1.6,1.61,1.46,1.46,3.4,1.46,5.52v5c0,1.5.64,2.16,1.25,2.98.21.29.26.64,0,.85-.67.55-1.88,1.56-2.54,2.13h0"/>
    </g>
  </g>
</svg>
