<?xml version="1.0" encoding="UTF-8"?>
<svg id="Ebene_2" data-name="Ebene 2" xmlns="http://www.w3.org/2000/svg" viewBox="0 0 20.34 23.05">
  <defs>
    <style>
      .cls-1 {
        fill: #5e803e;
      }

      .cls-2 {
        fill: #fff;
      }

      .cls-3 {
        fill: #85af47;
      }
    </style>
  </defs>
  <g id="Ebene_1-2" data-name="Ebene 1">
    <g>
      <path id="path69" class="cls-3" d="M17.82,4.44c-.01-.12-.12-.18-.2-.19s-1.72-.03-1.72-.03c0,0-1.38-1.34-1.51-1.47s-.4-.1-.5-.07c0,0-.26.08-.7.22-.07-.23-.18-.52-.33-.8-.49-.94-1.2-1.43-2.07-1.43-.05,0-.12,0-.18.01-.03-.03-.05-.05-.08-.1C10.14.18,9.66-.01,9.09,0c-1.12.03-2.22.83-3.14,2.28-.64,1.01-1.12,2.28-1.25,3.26-1.28.4-2.18.67-2.19.68-.64.2-.67.22-.75.83-.07.45-1.76,13.55-1.76,13.55l14.19,2.45,6.15-1.53s-2.51-16.97-2.52-17.08ZM12.47,3.12c-.33.1-.7.22-1.1.34-.01-.56-.08-1.35-.34-2.03.86.16,1.27,1.12,1.44,1.69ZM10.63,3.69c-.75.23-1.55.48-2.37.74.23-.87.67-1.74,1.2-2.32.2-.22.48-.45.8-.59.31.64.37,1.55.37,2.17ZM9.11.75c.26,0,.48.05.67.18-.3.15-.6.38-.87.68-.71.76-1.25,1.94-1.47,3.08-.68.2-1.34.41-1.95.6.41-1.8,1.91-4.48,3.63-4.54Z"/>
      <path id="path71" class="cls-1" d="M17.61,4.25c-.08-.01-1.72-.03-1.72-.03,0,0-1.38-1.34-1.51-1.47-.05-.05-.12-.08-.19-.08v20.38l6.15-1.53s-2.51-16.96-2.52-17.08c-.03-.12-.12-.18-.2-.19Z"/>
      <path id="path73" class="cls-2" d="M10.78,7.42l-.71,2.67s-.79-.37-1.74-.3c-1.39.08-1.4.95-1.39,1.19.08,1.2,3.22,1.46,3.39,4.25.14,2.21-1.17,3.71-3.05,3.83-2.26.14-3.5-1.19-3.5-1.19l.48-2.03s1.25.94,2.25.89c.65-.04.89-.57.86-.95-.1-1.55-2.66-1.47-2.82-4.02-.14-2.15,1.28-4.33,4.4-4.54,1.23-.11,1.84.2,1.84.2h0Z"/>
    </g>
  </g>
</svg>